<svg viewBox="0 0 36 36" xmlns="http://www.w3.org/2000/svg"><path d="M18 0C14.4399 0 10.9598 1.05568 7.99974 3.03355C5.03966 5.01141 2.73255 7.82263 1.37018 11.1117C0.00780024 14.4008 -0.348661 18.02 0.345873 21.5116C1.04041 25.0033 2.75474 28.2106 5.27208 30.7279C7.78943 33.2453 10.9967 34.9596 14.4884 35.6541C17.98 36.3487 21.5992 35.9922 24.8883 34.6298C28.1774 33.2674 30.9886 30.9603 32.9665 28.0003C34.9443 25.0402 36 21.5601 36 18C36 13.2261 34.1036 8.64773 30.7279 5.27208C27.3523 1.89642 22.7739 0 18 0ZM24.1314 30.2457L11.2971 23.5543L20.9543 18.5257L24.1314 20.1771V30.2457ZM24.1314 15.1543L10.2457 22.3543V12.9543L24.1314 5.73143V15.1543Z" fill="#2350FF"></path></svg>